<?xml version="1.0" encoding="UTF-8" standalone="no"?>
<!-- Created with Inkscape (http://www.inkscape.org/) -->

<svg
   width="297mm"
   height="297mm"
   viewBox="0 0 297 297"
   version="1.1"
   id="svg5"
   inkscape:version="1.1.2 (0a00cf5339, 2022-02-04)"
   sodipodi:docname="final_primary_logo.svg"
   inkscape:export-filename="/home/mikaela/Pictures/astrosoc_logos/drawing.png"
   inkscape:export-xdpi="100"
   inkscape:export-ydpi="100"
   xmlns:inkscape="http://www.inkscape.org/namespaces/inkscape"
   xmlns:sodipodi="http://sodipodi.sourceforge.net/DTD/sodipodi-0.dtd"
   xmlns:xlink="http://www.w3.org/1999/xlink"
   xmlns="http://www.w3.org/2000/svg"
   xmlns:svg="http://www.w3.org/2000/svg">
  <sodipodi:namedview
     id="namedview7"
     pagecolor="#505050"
     bordercolor="#eeeeee"
     borderopacity="1"
     inkscape:pageshadow="0"
     inkscape:pageopacity="0"
     inkscape:pagecheckerboard="0"
     inkscape:document-units="mm"
     showgrid="false"
     inkscape:zoom="0.70710678"
     inkscape:cx="417.193"
     inkscape:cy="423.55696"
     inkscape:window-width="1440"
     inkscape:window-height="836"
     inkscape:window-x="0"
     inkscape:window-y="0"
     inkscape:window-maximized="1"
     inkscape:current-layer="layer5"
     inkscape:snap-global="false"
     showguides="false" />
  <defs
     id="defs2" />
  <g
     inkscape:label="Base layer"
     inkscape:groupmode="layer"
     id="layer1">
    <path
       id="path126"
       style="fill:#704355;stroke-width:0.587223"
       d="M 232.42717,148.49999 A 83.927187,85.261152 0 0 1 148.5,233.76115 83.927187,85.261152 0 0 1 64.572829,148.49999 83.927187,85.261152 0 0 1 148.5,63.238852 83.927187,85.261152 0 0 1 232.42717,148.49999 Z" />
    <path
       id="path1921"
       style="fill:none;stroke-width:0.587223"
       d="m 138.15859,231.78761 a 85.261152,83.927187 7.0779127 0 1 -74.270008,-93.7934 85.261152,83.927187 7.0779127 0 1 94.952848,-72.781812 85.261152,83.927187 7.0779127 0 1 74.26999,93.793392 85.261152,83.927187 7.0779127 0 1 -94.95283,72.78182 z" />
    <path
       style="fill:#4c1325;fill-opacity:1;stroke:#4c1325;stroke-width:0.327563;stroke-linecap:round;stroke-miterlimit:4;stroke-dasharray:none;stroke-opacity:1"
       d="m 80.42209,69.13448 c 0,0 2.353294,3.966825 2.193125,6.144725 -0.160175,2.1779 -3.293257,5.704398 -3.293257,5.704398 0,0 3.94706,-2.290916 6.090049,-2.087107 2.142989,0.20381 5.702523,3.317954 5.702523,3.317954 0,0 -2.398721,-3.955966 -2.185326,-6.07514 0.213394,-2.119175 3.356033,-5.70677 3.356033,-5.70677 0,0 -3.894701,2.326545 -6.073083,2.152852 C 84.033771,72.411691 80.42209,69.13448 80.42209,69.13448 Z"
       id="path94604"
       sodipodi:nodetypes="czczczczc" />
    <path
       style="fill:#4c1325;fill-opacity:1;stroke:#4c1325;stroke-width:0.327563;stroke-linecap:round;stroke-miterlimit:4;stroke-dasharray:none;stroke-opacity:1"
       d="m 218.35903,83.338318 c 0,0 2.3533,3.966825 2.19313,6.144725 -0.16018,2.1779 -3.29326,5.704398 -3.29326,5.704398 0,0 3.94706,-2.290916 6.09005,-2.087107 2.14299,0.20381 5.70252,3.317954 5.70252,3.317954 0,0 -2.39872,-3.955966 -2.18532,-6.07514 0.21339,-2.119175 3.35603,-5.70677 3.35603,-5.70677 0,0 -3.8947,2.326545 -6.07308,2.152852 -2.17839,-0.173701 -5.79007,-3.450912 -5.79007,-3.450912 z"
       id="path98307"
       sodipodi:nodetypes="czczczczc" />
  </g>
  <g
     inkscape:groupmode="layer"
     id="layer2"
     inkscape:label="Bottom planet colours">
    <path
       style="fill:#4c1325;fill-opacity:1;stroke:#4c1325;stroke-width:0.356425;stroke-linecap:round;stroke-miterlimit:4;stroke-dasharray:none;stroke-opacity:1"
       d="m 69.034962,175.3511 c 0,0 2.597279,-3.21927 17.719746,-2.50825 15.122472,0.71101 25.452152,12.22979 40.047042,15.20718 14.5949,2.97735 27.83366,0.0263 37.8751,-1.15198 10.04147,-1.17943 21.88885,2.46954 28.64499,5.45427 6.75615,2.98471 9.54835,6.37063 12.12154,9.1116 2.5732,2.74097 3.82495,5.59569 3.82495,5.59569 0,0 -5.47596,6.28523 -14.08971,12.06772 -8.61375,5.78249 -13.27164,8.92861 -27.51138,12.15344 -14.23977,3.22482 -29.5927,3.46988 -47.53479,-2.85703 C 102.19033,222.09682 94.421343,214.97196 84.568876,203.98987 74.716409,193.00779 69.034962,175.3511 69.034962,175.3511 Z"
       id="path19178"
       sodipodi:nodetypes="czzzzzczzzzc" />
    <path
       style="fill:#4c1325;fill-opacity:1;stroke:#4c1325;stroke-width:0.121;stroke-linecap:round;stroke-miterlimit:4;stroke-dasharray:none;stroke-opacity:1"
       d="m 229.66669,169.93893 c 0,0 -1.39998,5.3436 -3.01412,9.62737 -1.61414,4.28377 -4.22669,9.17229 -4.22669,9.17229 0,0 -8.89098,-6.1127 -18.63755,-4.96506 -9.74656,1.14765 -19.50233,-4.01334 -15.82332,-8.86121 3.67902,-4.84787 15.98055,-0.99637 22.29787,-4.74597 6.31732,-3.74959 19.40381,-0.22742 19.40381,-0.22742 z"
       id="path35852"
       sodipodi:nodetypes="czczzzc" />
  </g>
  <g
     inkscape:groupmode="layer"
     id="layer3"
     inkscape:label="Rings">
    <path
       id="path11893"
       style="fill:none;fill-opacity:0;stroke:#cfa975;stroke-width:10.6672;stroke-linecap:round"
       d="M 861.33641 458.26626 A 550.22491 170.46347 7.593416 0 1 1106.8151 637.11874 L 1106.8151 637.11874 A 550.22491 170.46347 7.593416 0 1 542.8797 735.21317 A 550.22491 170.46347 7.593416 0 1 15.704564 494.27497 A 550.22491 170.46347 7.593416 0 1 297.56033 383.5255 "
       transform="scale(0.26458333)" />
    <path
       id="path895"
       style="fill:none;fill-opacity:0;stroke:#cfa975;stroke-width:10.6658;stroke-miterlimit:4;stroke-dasharray:none;stroke-linecap:round"
       d="M 868.5123 475.0936 A 499.06382 154.69098 7.5981458 0 1 1056.0838 625.19233 L 1056.0838 625.19233 A 499.06382 154.69098 7.5981458 0 1 544.58884 714.21116 A 499.06382 154.69098 7.5981458 0 1 66.435882 495.56428 A 499.06382 154.69098 7.5981458 0 1 287.65539 397.48789 "
       transform="scale(0.26458333)" />
    <path
       id="path897"
       style="fill:none;fill-opacity:0;stroke:#cfa975;stroke-width:10.6658;stroke-miterlimit:4;stroke-dasharray:none;stroke-linecap:round"
       d="M 871.2511 493.63662 A 444.93362 140.99896 7.8109561 0 1 1002.2315 615.73731 L 1002.2315 615.73731 A 444.93362 140.99896 7.8109561 0 1 546.40316 696.91045 A 444.93362 140.99896 7.8109561 0 1 120.28819 497.53417 A 444.93362 140.99896 7.8109561 0 1 280.13568 412.4221 "
       transform="scale(0.26458333)" />
    <path
       style="fill:none;fill-opacity:1;stroke:none;stroke-width:0.457323;stroke-linecap:round;stroke-miterlimit:4;stroke-dasharray:none;stroke-opacity:1"
       id="path61200"
       sodipodi:type="arc"
       sodipodi:cx="-226.75877"
       sodipodi:cy="-166.1169"
       sodipodi:rx="35.901138"
       sodipodi:ry="119.12229"
       sodipodi:start="0"
       sodipodi:end="6.2725213"
       sodipodi:open="true"
       sodipodi:arc-type="arc"
       d="m -190.85764,-166.1169 a 35.901138,119.12229 0 0 1 -35.80542,119.121871 35.901138,119.12229 0 0 1 -35.99634,-118.486711 35.901138,119.12229 0 0 1 35.61349,-119.75364 35.901138,119.12229 0 0 1 36.18623,117.84819"
       transform="matrix(0.13723328,-0.99053876,-0.99053876,-0.13723328,0,0)" />
  </g>
  <g
     inkscape:groupmode="layer"
     id="layer4"
     inkscape:label="Top planet colours">
    <path
       id="path1807"
       style="fill:#704355;stroke-width:0.587224"
       d="M 148.5,63.238852 A 83.927187,85.26115 0 0 0 64.572824,148.50031 H 232.42717 A 83.927187,85.26115 0 0 0 148.5,63.238852 Z" />
    <path
       style="fill:#4c1325;fill-opacity:1;stroke:#4c1325;stroke-width:0.563;stroke-linecap:round;stroke-miterlimit:4;stroke-dasharray:none;stroke-opacity:1"
       d="m 74.278379,109.23912 c 0,0 4.117706,-8.83965 13.035097,-18.818918 7.331986,-8.205074 16.786054,-13.938683 16.786054,-13.938683 0,0 5.23693,-0.790984 11.3358,-0.17282 6.09892,0.618086 7.85256,2.012764 16.06688,5.079452 8.21433,3.066689 12.74384,5.700446 18.07984,7.175335 5.33602,1.47489 16.75271,0.317271 23.00707,0.973414 6.25438,0.65614 10.29704,1.335197 15.20485,3.771804 4.90782,2.436608 9.8346,6.493741 13.20048,10.944686 3.3659,4.45094 5.10673,11.91641 9.41967,16.04164 4.31293,4.12525 11.86665,6.10087 14.79155,8.11608 2.92487,2.01518 5.5399,4.58938 5.5399,4.58938 0,0 0.82662,4.01976 1.04528,6.89264 0.21866,2.87289 0.26651,6.49317 0.26651,6.49317 0,0 -2.92004,2.39131 -6.91332,3.89596 -3.69511,1.39235 -5.95488,1.63067 -9.82925,3.12392 -2.65294,1.02254 -6.09961,7.91785 -10.69963,10.64738 -4.59997,2.7295 -11.97533,0.41137 -16.02675,-1.21562 -4.05142,-1.62693 -19.7024,-16.76109 -28.40478,-20.92707 -8.70237,-4.16597 -11.57301,-2.11056 -21.8593,-5.76805 -10.28629,-3.65748 -16.41284,-14.46148 -27.10445,-19.83337 -7.17107,-3.60301 -15.866613,-2.99188 -23.58074,-3.87403 -7.714099,-0.88216 -13.360761,-3.1963 -13.360761,-3.1963 z"
       id="path863"
       sodipodi:nodetypes="csczzzzzzzzczcsszzzzssc" />
    <path
       style="fill:#4c1325;fill-opacity:1;stroke:#4c1325;stroke-width:0.321;stroke-linecap:round;stroke-miterlimit:4;stroke-dasharray:none;stroke-opacity:1"
       d="m 148.20243,68.124615 c -1.57836,0.233552 -3.8891,0.930427 -4.5449,2.31143 -0.65579,1.381003 -0.1883,2.633909 1.02055,3.623473 1.20876,0.989563 8.51062,5.715906 13.84081,6.858017 5.33017,1.142111 13.73243,1.326606 21.54776,1.936509 7.81533,0.609902 17.26597,6.26139 18.05997,5.009441 0.79397,-1.251949 -2.67016,-4.043907 -6.25476,-6.535536 -3.58457,-2.491628 -10.75718,-4.531206 -15.18547,-6.654319 -4.42829,-2.123117 -8.15091,-4.583858 -11.44608,-5.719555 -3.29517,-1.135693 -6.08149,-1.311111 -8.25974,-1.318058 -2.17825,-0.0071 -2.60294,0.231141 -4.43713,0.452405 -1.83418,0.221276 -2.76267,-0.197369 -4.34101,0.03618 z"
       id="path13875"
       sodipodi:nodetypes="zzzzzzzzzzzzz" />
    <path
       style="fill:#4c1325;fill-opacity:1;stroke:#4c1325;stroke-width:0.379664;stroke-linecap:round;stroke-miterlimit:4;stroke-dasharray:none;stroke-opacity:1"
       d="m 65.846665,134.6844 c 0,0 -0.606003,3.21186 -0.936584,8.68212 -0.330581,5.47026 -0.0225,9.94823 -0.0225,9.94823 0,0 16.847799,2.23129 26.878119,4.55396 10.030336,2.3227 17.787116,10.39367 25.487716,11.90128 7.70061,1.50765 14.36057,-0.64301 27.98655,1.57796 13.62598,2.22098 24.08746,2.34084 25.03844,-0.61973 0.95101,-2.9606 -7.08938,-9.81963 -13.81858,-12.35403 -6.72919,-2.53438 -17.64413,-1.17222 -26.30682,-3.54782 -8.66271,-2.3756 -14.01325,-11.49311 -25.53206,-14.86356 -11.518811,-3.37042 -17.233761,-3.55671 -23.685181,-4.34313 -6.45142,-0.78642 -15.089104,-0.93528 -15.089104,-0.93528 z"
       id="path24793"
       sodipodi:nodetypes="czczzzzzzzzc" />
  </g>
  <g
     inkscape:groupmode="layer"
     id="layer5"
     inkscape:label="Text">
    <text
       xml:space="preserve"
       style="font-style:normal;font-variant:normal;font-weight:normal;font-stretch:normal;font-size:13.191px;font-family:Norwester;-inkscape-font-specification:'Norwester, Normal';font-variant-ligatures:normal;font-variant-caps:normal;font-variant-numeric:normal;font-variant-east-asian:normal;text-align:center;letter-spacing:3.50474px;word-spacing:-0.764923px;text-anchor:middle;fill:#cfa975;fill-opacity:1;stroke:#cfa975;stroke-width:0.779568;stroke-linecap:round;stroke-miterlimit:4;stroke-dasharray:none"
       id="text11601"
       transform="matrix(1.069749,0,0,1.069749,-10.373782,-11.290694)"><textPath
         xlink:href="#path1921"
         startOffset="50%"
         id="textPath52875">STELLENBOSCH</textPath></text>
    <text
       xml:space="preserve"
       style="font-style:normal;font-variant:normal;font-weight:normal;font-stretch:normal;font-size:21.1667px;font-family:Norwester;-inkscape-font-specification:'Norwester, Normal';font-variant-ligatures:normal;font-variant-caps:normal;font-variant-numeric:normal;font-variant-east-asian:normal;text-align:center;letter-spacing:1.06377px;text-anchor:middle;fill:#cfa975;fill-opacity:1;stroke:#cfa975;stroke-width:0.144317;stroke-linecap:round;stroke-miterlimit:4;stroke-dasharray:none;stroke-opacity:1"
       id="text42866"
       transform="matrix(0.93724962,0,0,1.0236497,21.349624,-110.82196)"><textPath
         xlink:href="#path61200"
         startOffset="50%"
         id="textPath65894"><tspan
           id="tspan45738"
           style="font-style:normal;font-variant:normal;font-weight:normal;font-stretch:normal;font-size:21.1667px;font-family:Norwester;-inkscape-font-specification:'Norwester, Normal';font-variant-ligatures:normal;font-variant-caps:normal;font-variant-numeric:normal;font-variant-east-asian:normal;fill:#cfa975;fill-opacity:1;stroke:#cfa975;stroke-width:0.144317;stroke-opacity:1"
           dx="0">Astronomy</tspan></textPath></text>
    <text
       xml:space="preserve"
       style="font-style:normal;font-variant:normal;font-weight:normal;font-stretch:normal;font-size:20.7327px;font-family:Norwester;-inkscape-font-specification:'Norwester, Normal';font-variant-ligatures:normal;font-variant-caps:normal;font-variant-numeric:normal;font-variant-east-asian:normal;text-align:center;letter-spacing:1.04246px;text-anchor:middle;fill:#cfa975;fill-opacity:1;stroke:#cfa975;stroke-width:0.121;stroke-linecap:round;stroke-miterlimit:4;stroke-dasharray:none;stroke-opacity:1"
       id="text79648"
       transform="translate(8.7727046,-69.271041)"><textPath
         xlink:href="#path61200"
         startOffset="50%"
         id="textPath89710"><tspan
           id="tspan79646"
           style="font-style:normal;font-variant:normal;font-weight:normal;font-stretch:normal;font-size:20.7327px;font-family:Norwester;-inkscape-font-specification:'Norwester, Normal';font-variant-ligatures:normal;font-variant-caps:normal;font-variant-numeric:normal;font-variant-east-asian:normal;fill:#cfa975;fill-opacity:1;stroke-width:0.121">Society</tspan></textPath></text>
  </g>
</svg>
